<?xml version="1.0" standalone="no"?>
<!DOCTYPE svg PUBLIC "-//W3C//DTD SVG 1.1//EN" "http://www.w3.org/Graphics/SVG/1.1/DTD/svg11.dtd">
<svg xmlns="http://www.w3.org/2000/svg" id="design" version="1.1" viewBox="0 0 1482.56 570.44" width="1482.56005859375" height="570.4400024414062">
  <!-- Generator: Adobe Illustrator 29.0.1, SVG Export Plug-In . SVG Version: 2.1.0 Build 192)  -->
  <defs>
    <style>
      .st0 {
        fill: #f86aa9;
      }
    </style>
  </defs>
  <path class="st0" d="M718.56,423.39h-77.8c-5.76,0-10.22-5.06-9.47-10.77,11.39-86.82,11.46-173.81,0-260.71-.75-5.71,3.7-10.78,9.47-10.78h77.79c5.78,0,10.25,5.1,9.46,10.83-11.93,86.75-11.88,173.7,0,260.61.78,5.73-3.68,10.82-9.46,10.82Z"/>
  <path class="st0" d="M833.53,423.39h-77.8c-5.76,0-10.22-5.06-9.47-10.77,11.39-86.82,11.46-173.81,0-260.71-.75-5.71,3.7-10.78,9.47-10.78h77.79c5.78,0,10.25,5.1,9.46,10.83-11.93,86.75-11.88,173.7,0,260.61.78,5.73-3.68,10.82-9.46,10.82Z"/>
  <path class="st0" d="M245.49,306.03c-8.96.4-15.64,10.93-9.56,23.18,1.74,3.51,5.78,9.93,7.45,13.47,11.58,23.82,12.92,44.38,13.81,70.84.18,5.4-4.15,9.87-9.55,9.87l-94.01-.03c-5.54,0-9.92-4.7-9.52-10.23,6.02-82.76,7.23-176.65,1.35-259.25l-.12-2.62c-.25-5.44,4.09-9.99,9.53-9.99l178.58-.13c4.79,0,8.84,3.54,9.48,8.29l.07.5h0c1.3,26.01,2.59,52.01,3.89,78.02l.09,4.33c.13,6.32-5.8,11.02-11.92,9.45l-5.72-1.47c-29.02-7.87-68.61-19.72-88.55-7.89-9.95,5.9-11.25,20.76-7.59,29.67,4.66,11.32,18.3,10.81,28.49,11.31,13.62-.09,23.97-5.46,37.93-8.57,5.63-1.26,11.1,2.72,11.61,8.46,1.1,12.23,1.07,24.53-.11,36.76l-.25,2.61c-.66,6.26-7.08,10.18-12.94,7.91,0,0-33.18-14.5-52.43-14.5Z"/>
  <path class="st0" d="M467.07,306.07c9.61,0,13.88,9.98,13.88,26.28,0,21.43-.85,34.58,5.99,54.91,12.51,37.19,45.67,46.06,80.37,40.56,24.79-4.44,41.69-18.63,48.35-42.96,5.33-19.46-.45-42.12-5.29-58.69-1.74-5.95-8.6-8.67-13.96-5.56-12.12,7.02-26.9,14.62-51.17,12.79-9.18-.69-22.09-2.91-29.96-9.47-3.05-2.54-4.81-4.75-6.24-7.39-2.61-4.79.85-10.64,6.3-10.61,13.49.09,33.47-.78,44.49-3.52,19.7-4.9,35.18-11.38,44.22-34.12,11.95-30.03,5.73-88.31-26.44-107.23-29.09-17.21-58.31-19.29-91.31-19.93,0,0-85.71.02-115.77.02-5.55,0-9.92,4.71-9.52,10.24l.42,5.86c6.24,81.67,6.09,174.09-.42,255.71-.44,5.55,3.95,10.29,9.52,10.29h82.07c5.62,0,10.03-4.83,9.51-10.43h0c-2.36-25.63-3.57-54.93-3.6-80.66l-.02-18.92c0-3.96,3.2-7.17,7.16-7.17h1.41ZM458.47,234.97c0-3.79,2.95-6.93,6.73-7.15,23.77-1.39,61.52-1.14,61.09,22.28v.26c.43,23.42-37.33,23.67-61.09,22.28-3.78-.22-6.73-3.36-6.73-7.15v-30.51Z"/>
  <path class="st0" d="M861.4,153.99c5.95,82.47,5.62,175.76-.24,258.47-.39,5.49,3.93,10.16,9.44,10.21,30.34.28,111.05,1.26,125.28-.9,42.42-5,70.73-33.2,83.18-73.19,11.98-39.4,13.15-84.78,2.56-124.63-15.41-58.56-68.01-83.47-124.83-82.82,0,0-61.23,0-86.07,0-5.56,0-9.93,4.73-9.52,10.27l.19,2.59ZM948.43,234.84h0c-.18-4.08,3.09-7.49,7.17-7.48h3.47c24.13,0,40.53,19.69,42.63,43.19,1.38,12.72.48,25.23-4.58,36.94-8.18,18.93-23.8,26.29-38.17,26.29h-3.12c-4.07,0-7.32-3.38-7.16-7.45v-.22c1.18-30.42,1.1-60.87-.23-91.28Z"/>
  <path class="st0" d="M1328.92,141.13h-87.55c-5.29,0-9.56,4.3-9.55,9.58,0,.11,0,.22,0,.33.02,9.41.37,18.8,1.04,28.18l9.22,129.38c.9,13.63-9.92,25.18-23.58,25.18h0c-13.66,0-24.47-11.55-23.58-25.18l9.22-129.39c.67-9.38,1.02-18.78,1.04-28.18,0-.11,0-.22,0-.33,0-5.29-4.27-9.58-9.55-9.58h-87.52c-5.77,0-10.22,5.08-9.47,10.8l1.07,8.11c4.22,34.09,6.68,68.4,7.34,102.74.45,23.69-1.13,47.43-2.36,71.11-2.55,48.33,24.86,95.39,112.5,95.39,87.11,1.65,118.61-46.32,115.14-95.39-1.23-23.67-2.81-47.41-2.36-71.11.67-34.93,3.21-69.82,7.56-104.49l.86-6.3c.79-5.74-3.67-10.85-9.46-10.85Z"/>
</svg>