<svg xmlns="http://www.w3.org/2000/svg" xmlns:xlink="http://www.w3.org/1999/xlink" width="250" zoomAndPan="magnify" viewBox="0 0 187.5 56.249996" height="75" preserveAspectRatio="xMidYMid meet" version="1.0"><path fill="#ffffff" d="M 90.121094 48.78125 L 78.28125 48.78125 C 77.402344 48.78125 76.722656 48.011719 76.839844 47.140625 C 78.570312 33.929688 78.582031 20.691406 76.839844 7.464844 C 76.722656 6.59375 77.402344 5.824219 78.28125 5.824219 L 90.117188 5.824219 C 90.996094 5.824219 91.679688 6.601562 91.558594 7.472656 C 89.742188 20.675781 89.75 33.90625 91.558594 47.132812 C 91.675781 48.007812 90.996094 48.78125 90.117188 48.78125 Z M 90.121094 48.78125 " fill-opacity="1" fill-rule="nonzero"/><path fill="#ffffff" d="M 107.617188 48.78125 L 95.777344 48.78125 C 94.898438 48.78125 94.222656 48.011719 94.335938 47.140625 C 96.070312 33.929688 96.078125 20.691406 94.335938 7.464844 C 94.222656 6.59375 94.898438 5.824219 95.777344 5.824219 L 107.617188 5.824219 C 108.496094 5.824219 109.175781 6.601562 109.054688 7.472656 C 107.238281 20.675781 107.246094 33.90625 109.054688 47.132812 C 109.175781 48.007812 108.496094 48.78125 107.617188 48.78125 Z M 107.617188 48.78125 " fill-opacity="1" fill-rule="nonzero"/><path fill="#ffffff" d="M 18.125 30.921875 C 16.761719 30.980469 15.742188 32.582031 16.667969 34.449219 C 16.933594 34.980469 17.546875 35.957031 17.800781 36.496094 C 19.566406 40.121094 19.769531 43.25 19.902344 47.277344 C 19.929688 48.101562 19.273438 48.78125 18.449219 48.78125 L 4.144531 48.777344 C 3.300781 48.777344 2.632812 48.0625 2.695312 47.21875 C 3.609375 34.625 3.792969 20.335938 2.898438 7.765625 L 2.882812 7.367188 C 2.84375 6.539062 3.503906 5.84375 4.332031 5.84375 L 31.511719 5.824219 C 32.238281 5.824219 32.855469 6.363281 32.953125 7.085938 L 32.964844 7.164062 C 33.160156 11.121094 33.359375 15.078125 33.554688 19.035156 L 33.570312 19.695312 C 33.589844 20.65625 32.6875 21.375 31.753906 21.132812 L 30.882812 20.910156 C 26.46875 19.710938 20.441406 17.910156 17.40625 19.710938 C 15.894531 20.609375 15.695312 22.867188 16.253906 24.226562 C 16.960938 25.949219 19.039062 25.871094 20.589844 25.945312 C 22.660156 25.933594 24.238281 25.117188 26.363281 24.640625 C 27.21875 24.449219 28.050781 25.054688 28.128906 25.929688 C 28.296875 27.789062 28.292969 29.664062 28.113281 31.523438 L 28.074219 31.921875 C 27.972656 32.875 26.996094 33.46875 26.105469 33.125 C 26.105469 33.125 21.054688 30.917969 18.125 30.917969 Z M 18.125 30.921875 " fill-opacity="1" fill-rule="nonzero"/><path fill="#ffffff" d="M 51.84375 30.925781 C 53.308594 30.925781 53.957031 32.445312 53.957031 34.925781 C 53.957031 38.1875 53.828125 40.1875 54.871094 43.28125 C 56.773438 48.941406 61.820312 50.292969 67.101562 49.457031 C 70.875 48.78125 73.445312 46.621094 74.460938 42.917969 C 75.269531 39.957031 74.390625 36.507812 73.65625 33.984375 C 73.390625 33.078125 72.34375 32.664062 71.53125 33.140625 C 69.683594 34.207031 67.4375 35.363281 63.742188 35.085938 C 62.34375 34.980469 60.378906 34.640625 59.183594 33.644531 C 58.71875 33.257812 58.449219 32.921875 58.234375 32.519531 C 57.835938 31.789062 58.363281 30.898438 59.191406 30.90625 C 61.246094 30.917969 64.285156 30.785156 65.960938 30.367188 C 68.960938 29.625 71.316406 28.636719 72.691406 25.175781 C 74.511719 20.605469 73.566406 11.738281 68.667969 8.855469 C 64.242188 6.238281 59.792969 5.921875 54.773438 5.824219 C 54.773438 5.824219 41.726562 5.828125 37.152344 5.828125 C 36.308594 5.828125 35.644531 6.542969 35.703125 7.386719 L 35.769531 8.277344 C 36.71875 20.707031 36.695312 34.773438 35.703125 47.195312 C 35.636719 48.039062 36.304688 48.757812 37.152344 48.757812 L 49.644531 48.757812 C 50.5 48.757812 51.167969 48.023438 51.089844 47.171875 C 50.730469 43.273438 50.546875 38.8125 50.542969 34.898438 L 50.539062 32.015625 C 50.539062 31.414062 51.027344 30.925781 51.628906 30.925781 Z M 50.535156 20.105469 C 50.535156 19.527344 50.984375 19.050781 51.5625 19.015625 C 55.179688 18.804688 60.921875 18.84375 60.859375 22.40625 L 60.859375 22.449219 C 60.921875 26.011719 55.175781 26.050781 51.5625 25.839844 C 50.984375 25.804688 50.535156 25.328125 50.535156 24.75 Z M 50.535156 20.105469 " fill-opacity="1" fill-rule="nonzero"/><path fill="#ffffff" d="M 111.859375 7.78125 C 112.765625 20.332031 112.714844 34.53125 111.820312 47.117188 C 111.761719 47.953125 112.421875 48.664062 113.257812 48.671875 C 117.875 48.714844 130.160156 48.863281 132.324219 48.535156 C 138.78125 47.773438 143.089844 43.480469 144.984375 37.394531 C 146.808594 31.398438 146.984375 24.492188 145.375 18.429688 C 143.027344 9.515625 135.023438 5.726562 126.375 5.824219 C 126.375 5.824219 117.058594 5.824219 113.277344 5.824219 C 112.429688 5.824219 111.765625 6.542969 111.828125 7.386719 L 111.855469 7.78125 Z M 125.105469 20.085938 C 125.078125 19.464844 125.574219 18.945312 126.195312 18.945312 L 126.722656 18.945312 C 130.394531 18.945312 132.890625 21.945312 133.210938 25.519531 C 133.421875 27.457031 133.285156 29.359375 132.515625 31.140625 C 131.269531 34.023438 128.890625 35.144531 126.703125 35.144531 L 126.230469 35.144531 C 125.609375 35.144531 125.117188 34.628906 125.140625 34.007812 L 125.140625 33.976562 C 125.320312 29.347656 125.308594 24.710938 125.105469 20.085938 Z M 125.105469 20.085938 " fill-opacity="1" fill-rule="nonzero"/><path fill="#ffffff" d="M 183.011719 5.824219 L 169.6875 5.824219 C 168.882812 5.824219 168.230469 6.476562 168.234375 7.28125 C 168.234375 7.296875 168.234375 7.316406 168.234375 7.332031 C 168.234375 8.765625 168.289062 10.191406 168.390625 11.621094 L 169.792969 31.3125 C 169.929688 33.386719 168.285156 35.144531 166.207031 35.144531 C 164.125 35.144531 162.480469 33.386719 162.617188 31.3125 L 164.019531 11.621094 C 164.121094 10.191406 164.175781 8.761719 164.179688 7.332031 C 164.179688 7.3125 164.179688 7.296875 164.179688 7.28125 C 164.179688 6.476562 163.527344 5.824219 162.726562 5.824219 L 149.40625 5.824219 C 148.527344 5.824219 147.851562 6.59375 147.964844 7.464844 L 148.125 8.699219 C 148.769531 13.886719 149.144531 19.109375 149.242188 24.335938 C 149.3125 27.941406 149.070312 31.554688 148.886719 35.160156 C 148.496094 42.515625 152.667969 49.675781 166.007812 49.675781 C 179.261719 49.925781 184.058594 42.625 183.53125 35.160156 C 183.34375 31.554688 183.101562 27.941406 183.171875 24.335938 C 183.273438 19.019531 183.660156 13.710938 184.320312 8.433594 L 184.453125 7.476562 C 184.570312 6.601562 183.894531 5.824219 183.011719 5.824219 Z M 183.011719 5.824219 " fill-opacity="1" fill-rule="nonzero"/></svg>