<svg width="456" height="449" viewBox="0 0 456 449" fill="none" xmlns="http://www.w3.org/2000/svg">
<path d="M259.5 312.798L230.6 283.898C211.5 264.798 217.1 228.198 243.1 202.298L284.5 160.898L301.8 178.198L260.4 219.598C244.6 235.398 238.7 257.398 247.9 266.598L276.8 295.498L259.5 312.798ZM284.5 172.898L249.1 208.298C226.5 230.898 220.9 262.198 236.6 277.898L259.5 300.798L264.8 295.498L241.9 272.598C229.1 259.798 234.7 233.298 254.4 213.598L289.8 178.198L284.5 172.898Z" fill="white"/>
<path d="M180.6 299.402L163.3 282.002L204.7 240.602C216.6 228.702 231.2 220.602 245.7 217.702C249.3 217.002 253 216.602 256.7 216.602C268.5 216.602 278.7 220.602 286.2 228.102L316.3 257.002L299 274.402L269 245.502C265.1 241.602 258.4 240.302 250.4 241.802C240.6 243.702 230.5 249.402 222 257.902L180.6 299.402ZM175.3 282.002L180.6 287.302L216 252.002C225.7 242.302 237.3 235.802 248.8 233.502C251.4 233.002 254.1 232.702 256.7 232.702C264.2 232.702 270.5 235.002 275 239.502L299.1 262.402L304.4 257.102L280.3 234.202C274.4 228.302 266.3 225.202 256.8 225.202C253.6 225.202 250.5 225.502 247.4 226.102C234.5 228.602 221.5 235.902 210.7 246.602L175.3 282.002Z" fill="white"/>
<path d="M169.3 288.103L152 270.803L193.4 229.403C209.2 213.603 215.3 191.803 206.3 182.903L177.9 154.503L195.2 137.203L223.6 165.603C242.4 184.403 236.6 220.803 210.7 246.703L169.3 288.103ZM163.9 270.803L169.2 276.103L204.6 240.703C227.2 218.103 233 187.003 217.5 171.503L195.1 149.003L189.8 154.303L212.2 176.703C224.8 189.303 219 215.503 199.3 235.203L163.9 270.803Z" fill="white"/>
<path d="M196.8 232.403C185.1 232.403 175.1 228.603 167.9 221.303L139.5 192.903L156.8 175.603L185.2 204.103C188.6 207.503 193.4 208.203 196.9 208.203C207.8 208.203 221.2 201.703 231.7 191.103L273.1 149.703L290.4 167.003L249 208.403C234 223.403 214.5 232.403 196.8 232.403ZM151.4 192.903L173.9 215.303C179.5 220.903 187.5 223.903 196.9 223.903C212.3 223.903 229.6 215.803 243.1 202.303L278.4 166.903L273.1 161.603L237.7 197.003C225.7 209.003 210 216.503 196.9 216.503C189.6 216.503 183.5 214.203 179.2 209.903L156.7 187.503L151.4 192.903Z" fill="white"/>
<path d="M341.3 142.5L349.9 133.9C341.1 122.2 330.7 111.8 319 103L310.4 111.6C322.2 120.2 332.7 130.7 341.3 142.5Z" fill="white"/>
<path d="M114.6 307.398L106 315.998C114.8 327.698 125.2 338.098 136.9 346.898L145.5 338.298C133.6 329.698 123.2 319.298 114.6 307.398Z" fill="white"/>
<path d="M227.9 93.8C255.1 93.8 281.7 102.3 303.8 118.1L310.3 111.6C261.2 75.8 194.5 75.8 145.4 111.6L151.9 118.1C174.2 102.3 200.7 93.8 227.9 93.8Z" fill="white"/>
<path d="M87.7 225.002C87.7 254.602 97.1 283.502 114.6 307.502L121.1 301.002C88.7 255.602 88.7 194.602 121.1 149.102L114.6 142.602C97.1 166.502 87.6 195.302 87.7 225.002Z" fill="white"/>
<path d="M227.9 356.105C200.7 356.105 174.1 347.605 152 331.805L145.5 338.305C194.6 374.205 261.3 374.205 310.4 338.305L303.9 331.805C281.7 347.705 255.2 356.205 227.9 356.105Z" fill="white"/>
<path d="M368.2 225.002C368.2 195.402 358.8 166.502 341.3 142.602L334.8 149.002C367.2 194.402 367.2 255.402 334.8 300.802L341.3 307.302C358.8 283.502 368.2 254.602 368.2 225.002Z" fill="white"/>
<path d="M390.8 224.998C390.8 189.398 379.1 154.698 357.4 126.398L349.9 133.898C390.3 187.898 390.3 261.998 349.9 315.998L357.4 323.498C379.1 295.298 390.8 260.598 390.8 224.998Z" fill="white"/>
<path d="M227.9 377.3C195.1 377.3 163.1 366.7 136.8 347L129.3 354.5C187.5 399 268.3 399 326.5 354.5L319 347C292.8 366.7 260.8 377.3 227.9 377.3Z" fill="white"/>
<path d="M129.4 95.4016L136.9 102.902C190.9 62.5016 265 62.5016 319 102.902L326.5 95.4016C268.3 51.0016 187.6 51.0016 129.4 95.4016Z" fill="white"/>
<path d="M65.1 224.998C65.1 260.598 76.8 295.298 98.5 323.598L106 316.098C65.6 262.098 65.6 187.898 106 133.898L98.5 126.398C76.8 154.698 65 189.298 65.1 224.998Z" fill="white"/>
<path d="M106 133.9L114.6 142.5C123.2 130.7 133.7 120.2 145.5 111.6L136.9 103C125.2 111.7 114.8 122.1 106 133.9Z" fill="white"/>
<path d="M350 315.998L341.4 307.398C332.8 319.298 322.3 329.698 310.5 338.298L319 346.998C330.8 338.198 341.2 327.798 350 315.998Z" fill="white"/>
</svg>
